PathFileType	4	(X/Y/Z)	Patient4_TMGait_0pt3_03_right_29.trc.trc
DataRate	CameraRate	NumFrames	NumMarkers	Units	OrigDataRate	OrigDataStartFrame	OrigNumFrames
53.030303030303	53.030303030303	6	33	mm	53.030303030303	1	       141
Frame#	Time	Sacral			L.Shoulder			Chest			R.Shoulder			Neck			R.ASIS			L.ASIS			R.Thigh.Superior			R.Thigh.Lateral			R.Thigh.Inferior			R.Patella			L.Thigh.Superior			L.Thigh.Lateral			L.Thigh.Inferior			L.Patella			L.Shank.Superior			L.Shank.Lateral			L.Shank.Inferior			R.Shank.Superior			R.Shank.Lateral			R.Shank.Inferior			R.Heel			R.Midfoot.Superior			R.Midfoot.Lateral			R.Toe			L.Heel			L.Midfoot.Lateral			L.Midfoot.Superior			L.Toe			L.Elbow			L.Wrist			R.Elbow			R.Wrist			
		X1	Y1	Z1	X2	Y2	Z2	X3	Y3	Z3	X4	Y4	Z4	X5	Y5	Z5	X6	Y6	Z6	X7	Y7	Z7	X8	Y8	Z8	X9	Y9	Z9	X10	Y10	Z10	X11	Y11	Z11	X12	Y12	Z12	X13	Y13	Z13	X14	Y14	Z14	X15	Y15	Z15	X16	Y16	Z16	X17	Y17	Z17	X18	Y18	Z18	X19	Y19	Z19	X20	Y20	Z20	X21	Y21	Z21	X22	Y22	Z22	X23	Y23	Z23	X24	Y24	Z24	X25	Y25	Z25	X26	Y26	Z26	X27	Y27	Z27	X28	Y28	Z28	X29	Y29	Z29	X30	Y30	Z30	X31	Y31	Z31	X32	Y32	Z32	X33	Y33	Z33	

1	54.110000000000	688.079015766943	1002.587821692188	464.647894984276	883.095377045858	1421.463091160301	277.501829041284	982.449101375524	1350.322160528228	439.646962061197	903.282898379040	1427.909595979730	612.624501951752	862.037712902448	1486.226946795185	435.014717838944	915.882327867902	928.857880867575	581.115697529484	904.170500343682	951.243239778818	307.738349116774	960.448845326485	728.984756023488	559.598151770141	886.817495743945	621.123184871653	630.263084100085	965.414932990392	560.614429749972	553.056553286903	955.362226424106	450.416509367651	579.232406273106	966.293774890014	750.035670711794	354.153399853425	896.416054349451	622.541277638975	296.040365892424	983.181866245122	556.222342287569	370.626178893835	989.606266258388	481.840728059463	380.462486040020	953.899579972023	407.539880501604	373.432375862845	859.759643714461	300.419726269951	316.176965210610	889.831999351238	187.069524202769	392.777896343474	869.879012920637	390.447861132200	589.674654554680	744.143587326855	370.735554852558	651.129013880888	717.171857814537	261.121066191407	608.351517812134	512.952193956282	230.356928152800	575.864854086029	664.688459363088	143.022334805634	631.314703614667	555.968163047149	166.458786237216	656.069606111880	705.784318602586	25.943671133164	668.017166042928	745.411065791612	38.955149535921	422.933588284833	825.351611351336	36.346072520837	348.396321544966	907.735191894412	95.427252790843	382.804411085790	1037.173019109901	40.124639281829	362.539436788117	912.067641747876	1074.022618842301	147.470570312820	1023.097948541102	836.740763244469	149.734875718463	964.104124436209	1078.431108139294	725.651086397272	1158.515856496995	901.418267989002	726.605477062391	
2	54.128857142857	686.876804526670	1000.074506638698	461.439690380759	883.768914032873	1420.378021257541	277.160624691193	980.857152246716	1348.906149666308	440.365899251882	899.057910968805	1425.257757578503	612.692100062430	860.804348370458	1484.560697406699	434.804165559392	914.194068527454	928.181926833440	580.011616213699	904.490900952074	949.360551540079	306.563630650815	964.877194792666	731.830474267226	556.527728938353	896.025805654627	622.010863795565	627.290594656404	975.634859472442	564.129381348666	548.930206865823	968.909862868865	452.776270062611	575.141150603186	967.175842614371	748.269394244841	353.938891376449	898.011034480660	620.425138550459	296.174008412195	984.183824040848	554.403917717722	371.881380268514	990.434677989528	479.668073947600	382.054134309812	953.547823662845	405.321515523013	374.710557993042	858.182422757678	299.617856751825	316.792419055174	885.813534284732	185.915528543947	393.359952714304	882.748300548932	392.338869397135	586.295586182367	756.391143562425	373.931683345267	647.225667705435	728.808970565858	264.203704777006	605.256440199917	523.745850556635	233.622649092310	572.653100647128	676.065474166580	147.237762380722	628.656153814658	567.135051322785	170.620200574779	653.512204763793	717.476635201296	29.906732179474	666.553157082894	739.616510926062	38.985284258753	422.882165200882	819.570755658199	36.337964289802	348.365311628659	901.977913891099	95.276328622130	382.995432977458	1031.371335654960	40.028333192174	362.508650944789	920.457225227219	1074.905972429784	145.435052165347	1041.351613657232	843.239353449513	147.819530942847	943.894963547234	1073.555431338319	724.410407853663	1117.882456345997	881.812585108334	730.369158223013	
3	54.147714285714	685.662136371883	997.565440664916	458.230475495510	884.467106707248	1419.316395269629	276.909274087807	979.229483419113	1347.510145232411	441.204004736468	894.703703018493	1422.601480542099	612.832374393446	859.554847785707	1482.916113565528	434.675148905131	912.425295300920	927.498445205607	578.973938156133	904.880655526160	947.538073066274	305.464960740963	969.246724986233	734.797592017701	553.534581683541	905.217034881937	623.040013117822	624.379522246400	985.834282979719	567.828168444378	544.852345840600	982.548956408476	455.398755519746	571.076460996991	968.023134247029	746.463888484474	353.709647094970	899.476675818493	618.310259541500	296.294465258459	985.027526501658	552.553770233671	373.108592149304	991.073246521999	477.487483853215	383.636428357773	953.019608689293	403.102385648239	375.971078579533	856.451839696520	298.802893889243	317.388945265186	881.655469878279	184.760380723698	393.929047986054	895.881085109453	394.308940984172	582.946625171105	768.935180990810	376.774487889842	643.371211343852	741.096344635514	266.823817837201	602.189293015043	535.226157136818	235.627692219827	569.486700169957	688.501498058196	150.896701613177	626.055100203240	579.253577511691	173.725196667588	651.001748848340	730.758414411883	33.548033464017	665.142773944057	733.684673229493	39.011271172936	422.829609184475	813.659654286373	36.328476150187	348.330282141716	896.087458825526	95.121331156822	383.184513393817	1025.440789838953	39.932266778765	362.477473598233	928.935333612276	1075.920051841540	143.410379057763	1060.037795148394	850.274781927208	145.953307792228	923.128196133251	1068.915668751104	723.186078221274	1076.093856983143	862.869444269973	733.867587448683	
4	54.166571428571	684.464195742374	995.190114713797	455.122663909447	885.195770868487	1418.361125555747	276.814071933039	977.602251560366	1346.223686965374	442.209564321310	890.292636952941	1420.068005877361	613.083515287329	858.323223394322	1481.390416334459	434.681776132163	910.608776386708	926.876452117076	578.095737191151	905.356855738078	945.895963221644	304.525607758020	973.363250353085	737.870902031652	550.760819421011	914.047789430830	624.262164183621	621.657029160992	995.630386329001	571.693669528233	540.991422196790	995.841950960848	458.358816848349	567.192016734026	968.757698033974	744.674022566471	353.481399040347	900.653637624202	616.291696476838	296.396410409443	985.542422300468	550.727319988912	374.257586338562	991.337927670536	475.382743930913	385.152815665681	952.180616150313	400.975794973488	377.160828491811	854.491555924469	298.007623803048	317.935443144752	877.380285320635	183.652781748172	394.458312027537	908.983136665026	396.357384115050	579.759464962889	781.571395592571	378.980023077106	639.737427240555	754.055745391120	268.675630116961	599.275742673655	547.547624807913	235.632823242836	566.521269232812	702.267605845153	153.618926591735	623.621402090323	592.598013151064	175.127917893550	648.658604365985	746.150149825449	36.657882990441	663.828282336728	727.712536560694	39.031406500935	422.776185268354	807.716099824403	36.316706532475	348.290661126866	890.160486111483	94.967215144398	383.361811647007	1019.480744989754	39.839650517943	362.446641874586	937.302044482691	1077.142401042127	141.480316947119	1078.802983855506	857.972346571036	144.246847173266	902.132199332755	1064.857624144672	722.002273614897	1033.863646503590	845.594476565636	736.853865962932	
5	54.185428571429	683.305845954560	993.087583760087	452.199837079619	885.971163853174	1417.607862617284	276.936614703986	976.008097767148	1345.145993893973	443.431496136055	885.885474657119	1417.795804445791	613.479732842825	857.140298880945	1480.089424595064	434.872345277248	908.761847344372	926.395937578439	577.455388700610	905.921478473442	944.551526447576	303.819828947535	977.056130275064	741.049724925761	548.325715727103	922.213539370871	625.727875428304	619.229806280339	1004.686476679244	575.715010362474	537.495025744416	1008.402553662433	461.730790774384	563.625950404711	969.288828672178	742.958442706122	353.276916109319	901.376600512463	614.468880382744	296.475296508871	985.543151986937	548.980626333437	375.286375726059	991.026908292558	473.436216806688	386.549696260718	950.874658592786	399.034975474400	378.228814818819	852.198686729785	297.267988858174	318.401636570337	872.978260743142	182.642106777628	394.922708202204	921.805066006002	398.500439368289	576.854514233362	794.155780791389	380.314971935957	636.479662577136	767.750577680965	269.525073462908	596.633249352436	560.948444198884	233.038898233877	563.903479111345	717.646299121194	155.102647956739	621.447560567266	607.488791413304	174.310542181528	646.590533647309	764.116134865948	39.089569096668	662.631716368231	721.763065698627	39.044578223431	422.721620206004	801.803264122231	36.301671658336	348.246098155210	884.259325489003	94.820026187760	383.516819938487	1013.555646318146	39.753766246681	362.416611393229	945.417221869574	1078.666597448043	139.723253172631	1097.370421893019	866.481316349775	142.806334734384	881.147194922207	1061.712951886916	720.866358320483	991.783333716150	830.838832256768	739.131769731498	
6	54.204285714286	682.203678325099	991.397312417160	449.524889812551	886.817250182976	1417.157217218296	277.327691841094	974.475797752740	1344.378518263882	444.912176484657	881.534660189724	1415.926256701884	614.047283236634	856.032967966062	1479.119670381533	435.283956306472	906.889659528517	926.143466707090	577.111435641758	906.561701649181	943.611260993097	303.407016460624	980.185933047504	744.339355337377	546.319270565957	929.458970942697	627.475480125718	617.179161325695	1012.723605282710	579.877061248642	534.483323683884	1019.904756275982	465.571411981200	560.494341602183	969.519495250812	741.377214899741	353.127004451762	901.488976587426	612.939653116546	296.529064534147	984.846809939519	547.368685976729	376.165666053819	989.939613817892	471.724609845451	387.780809086860	948.940264758967	397.368184084185	379.130444852858	849.456833199520	296.621611366408	318.761061780357	868.414864493555	181.775794196842	395.301396202974	934.138668947531	400.765767693823	574.334725373010	806.597765624551	380.623130364422	633.729483859476	782.253082010333	269.242262411384	594.364195088035	575.706457243823	227.467907432501	561.765260297206	734.874629515868	155.169685677991	619.598942014876	624.239905378630	170.955326522035	644.887107202279	784.985079631465	40.795166622390	661.546888967759	715.868717604842	39.050431192326	422.665105513592	795.952849722217	36.282620655194	348.196554546617	878.415378659555	94.686724589279	383.639225853882	1007.698002483386	39.677732688654	362.387703587674	953.200274900015	1080.590503284789	138.208908039671	1115.531672740800	875.945002847320	141.728452438277	860.344031332493	1059.772219921106	719.767710290747	950.349376295215	819.232955584536	740.575388819170	
